<svg xmlns="http://www.w3.org/2000/svg" viewBox="0 0 96 96" id="folder-upload"><g data-name="Folder Upload"><path d="M81.72,30.11H78.91a2.85,2.85,0,0,1-2.55-1.6l-1.53-3.16A5.08,5.08,0,0,0,70.3,22.5H56.81a5.08,5.08,0,0,0-4.54,2.85l-1.53,3.16a2.85,2.85,0,0,1-2.55,1.6H26a5.11,5.11,0,0,0-5.11,5.11c0,.1.4,0-5.85,0a1,1,0,0,0-1,1v5.48h-1a3.88,3.88,0,0,0-3.88,3.87V92.13A3.88,3.88,0,0,0,13.05,96H81.71a5.13,5.13,0,0,0,5.12-5.12V35.22A5.11,5.11,0,0,0,81.72,30.11ZM16.07,37.26H71.6v4.48H16.07ZM13.05,94a1.88,1.88,0,0,1-1.88-1.87V45.61a1.88,1.88,0,0,1,1.88-1.87H76a1.87,1.87,0,0,1,1.87,1.87V94Zm71.78-3.12A3.12,3.12,0,0,1,81.71,94h-1.8V45.61A3.87,3.87,0,0,0,76,41.74H73.6V36.26a1,1,0,0,0-1-1H22.92A3.12,3.12,0,0,1,26,32.11H48.19a4.86,4.86,0,0,0,4.35-2.73l1.53-3.16a3.07,3.07,0,0,1,2.74-1.72H70.3A3.06,3.06,0,0,1,73,26.22l1.53,3.16a4.86,4.86,0,0,0,4.35,2.73h2.81a3.11,3.11,0,0,1,3.11,3.11Z"></path><path d="M69.36 30.11H57.74a1 1 0 100 2H69.36a1 1 0 000-2zM38.71 15.28h1v9.29a3 3 0 003 3h3.7a3 3 0 003-3V15.28h1a3 3 0 002.52-4.55L47.06 1.4a3 3 0 00-5 0l-5.83 9.33A3 3 0 0038.71 15.28zm-.82-3.49l5.83-9.33a1 1 0 011.65 0l5.83 9.33a1 1 0 01-.83 1.49h-2a1 1 0 00-1 1V24.57a1 1 0 01-1 1h-3.7a1 1 0 01-1-1V14.28a1 1 0 00-1-1h-2A1 1 0 0137.89 11.79z"></path></g></svg>